<?xml version="1.0" encoding="UTF-8"?>
<svg version="1.1" xmlns="http://www.w3.org/2000/svg" width="1024" height="527">
<path d="M0 0 C10.06484945 9.11393133 19.77715989 18.59070743 29.3762207 28.19091797 C31.48306307 30.2955145 33.5978754 32.39190159 35.71289062 34.48828125 C37.05777696 35.83024299 38.40219712 37.17267213 39.74609375 38.515625 C40.37712509 39.13947083 41.00815643 39.76331665 41.65830994 40.40606689 C46 44.7711004 46 44.7711004 46 47 C44.32381592 47.06731323 44.32381592 47.06731323 42.61376953 47.13598633 C38.37496006 47.30924352 34.13691373 47.49747023 29.89892578 47.68969727 C28.0820385 47.77013155 26.26497838 47.84677225 24.44775391 47.91918945 C4.24503925 48.72975769 -15.15512943 50.83441757 -33.3984375 60.14453125 C-34.13280029 60.5156604 -34.86716309 60.88678955 -35.6237793 61.26916504 C-37.41748046 62.17623198 -39.20897143 63.08766729 -41 64 C-40.05611923 63.99555878 -39.11223846 63.99111755 -38.13975525 63.98654175 C-29.1823116 63.9457463 -20.22488714 63.91589712 -11.26737118 63.89637566 C-6.66380333 63.88600166 -2.06031133 63.87196124 2.54321289 63.84912109 C6.99769763 63.8271623 11.45211007 63.81538358 15.90664482 63.81024551 C17.59403049 63.80659061 19.28141285 63.79945557 20.96876717 63.78853989 C36.62130868 63.69144083 51.05319169 65.41138226 66.25 69.4375 C66.89708923 69.60718292 67.54417847 69.77686584 68.21087646 69.95169067 C92.30558738 76.28801478 116.47532649 83.22688692 139 94 C140.01803711 94.48001465 140.01803711 94.48001465 141.05664062 94.96972656 C145.76365729 97.20313437 150.39304257 99.56762627 155 102 C156.19882813 102.63131836 156.19882813 102.63131836 157.421875 103.27539062 C176.61270926 113.43780968 195.25191417 124.54462425 213.5 136.3125 C214.34900879 136.85769287 215.19801758 137.40288574 216.07275391 137.96459961 C216.84280762 138.46741455 217.61286133 138.97022949 218.40625 139.48828125 C219.07978516 139.92696533 219.75332031 140.36564941 220.44726562 140.81762695 C222 142 222 142 223 144 C215.47012129 142.58299875 208.43589067 140.13405256 201.25341797 137.52114868 C167.05793202 125.13175698 133.12254173 114.10354174 97.31268311 107.43170166 C95.13569142 107.02532911 92.96054261 106.61027968 90.78564453 106.19287109 C69.81368192 102.20381352 48.71749335 100.40773182 27.43218994 99.1451416 C25.77650102 99.04633791 24.1210258 98.94390112 22.46575928 98.83825684 C9.36358068 98.01179036 -3.51945687 98.03899836 -16.625 98.75 C-17.53110016 98.79634583 -18.43720032 98.84269165 -19.37075806 98.89044189 C-38.74858736 99.88724775 -57.90865931 101.70171578 -77.0625 104.875 C-77.90578857 105.01212402 -78.74907715 105.14924805 -79.61791992 105.29052734 C-97.63479499 108.49145108 -114.79214723 114.91795893 -131.9375 121.125 C-133.11219849 121.5482959 -134.28689697 121.9715918 -135.49719238 122.40771484 C-157.80389929 130.45068792 -179.6371258 139.14473857 -201.29833984 148.7956543 C-239.80651785 165.79347582 -278.43469394 177.92589694 -320.9375 178.25 C-322.28569824 178.2641394 -322.28569824 178.2641394 -323.66113281 178.27856445 C-335.9667601 178.2191224 -347.44455108 175.81196569 -359.1875 172.3125 C-382.54655443 165.72029946 -405.3481145 160.32576976 -429.75 160.4375 C-430.51151367 160.44064209 -431.27302734 160.44378418 -432.05761719 160.44702148 C-447.36653516 160.58174795 -461.87317743 162.68306019 -476.6875 166.625 C-479.12779698 167.26725049 -481.56916163 167.90546185 -484.01171875 168.5390625 C-485.06834717 168.81959473 -486.12497559 169.10012695 -487.21362305 169.38916016 C-490 170 -490 170 -494 170 C-487.63188412 154.3435825 -459.5424459 144.39526633 -445.29589844 138.33886719 C-428.36573916 131.46146026 -410.91615026 126.4927948 -393 123 C-392.28199219 122.84837402 -391.56398438 122.69674805 -390.82421875 122.54052734 C-378.39161967 119.93284237 -365.84256252 119.47847114 -353.19189453 118.88241577 C-322.26735321 117.42292054 -291.66694832 115.53121476 -263 103 C-262.03852051 102.58298828 -261.07704102 102.16597656 -260.08642578 101.73632812 C-247.93812498 96.39353679 -237.0545883 90.5357006 -226.66015625 82.28466797 C-223.98001432 80.21071108 -221.18085171 78.33813051 -218.375 76.4375 C-211.7181876 71.86813248 -205.34451951 66.99113695 -199 62 C-198.071875 61.28457031 -197.14375 60.56914062 -196.1875 59.83203125 C-193.92696187 58.1860649 -193.92696187 58.1860649 -193 56 C-194.0837793 56.48243164 -195.16755859 56.96486328 -196.28417969 57.46191406 C-278.5440763 93.95169655 -374.16253592 122.0675612 -462.34448242 89.58374023 C-488.75538427 79.26421754 -515.41056654 65.06223166 -538 48 C-538.63550781 47.5875 -539.27101563 47.175 -539.92578125 46.75 C-541.68327955 45.59477066 -543.34967484 44.30375687 -545 43 C-545 41.68 -545 40.36 -545 39 C-536.37143608 39.5896908 -528.08972654 41.36285025 -519.66424561 43.20941162 C-493.18975718 48.98788187 -467.11830655 53.66024333 -440 55 C-441.09957031 54.3709375 -442.19914062 53.741875 -443.33203125 53.09375 C-451.91988982 48.13951587 -460.08335097 42.98364008 -468 37 C-469.33244462 36.03992092 -470.66725529 35.08312044 -472.00390625 34.12890625 C-472.69597168 33.63189209 -473.38803711 33.13487793 -474.10107422 32.62280273 C-475.47339259 31.63764322 -476.84864877 30.65656098 -478.22705078 29.67993164 C-479.85443735 28.50201173 -481.4325122 27.25652868 -483 26 C-483 25.34 -483 24.68 -483 24 C-474.19903488 24.59803718 -465.77806565 26.41877226 -457.17520142 28.26681519 C-431.23336903 33.81777438 -405.41645082 38.14363738 -378.8125 38.25 C-377.51119141 38.270625 -376.20988281 38.29125 -374.86914062 38.3125 C-367.55841327 38.34217317 -361.77041518 37.81175712 -355 35 C-367.78288562 22.50407711 -381.86687026 13.12865676 -399.375 8.875 C-400.94217773 8.48707275 -400.94217773 8.48707275 -402.54101562 8.09130859 C-411.6406417 5.92188889 -420.68064333 4.68247814 -430 4 C-422.19276158 -4.8930133 -406.73262695 -6.40984206 -395.50732422 -7.16845703 C-380.18093006 -7.86339314 -365.16237592 -6.02527898 -350 -4 C-348.44307145 -3.79414903 -346.88610318 -3.58859837 -345.32910156 -3.38330078 C-344.51161438 -3.27545761 -343.6941272 -3.16761444 -342.85186768 -3.0565033 C-341.15880583 -2.83323196 -339.4657312 -2.61005752 -337.77264404 -2.38697815 C-333.59619473 -1.83603306 -329.42046322 -1.2806133 -325.24609375 -0.71411133 C-265.30919634 7.37875032 -210.59384088 -7.97237863 -154.25 -27.375 C-98.50729527 -46.49919555 -45.12030267 -39.2955325 0 0 Z " fill="#000000" transform="translate(545,135)"/>
<path d="M0 0 C29.21883387 0.73717241 60.81294647 14.9745873 84 32 C84.58249512 32.42313477 85.16499023 32.84626953 85.76513672 33.28222656 C91.99236357 37.83402053 97.83471897 42.55724841 103.18359375 48.140625 C105.62339201 50.63813892 108.23872826 52.89141824 110.88671875 55.1640625 C113.19573893 57.17005045 115.43749945 59.24060935 117.6875 61.3125 C131.5080352 73.74888448 147.15955066 85.05559029 163.03125 94.73046875 C165.43674302 96.28162992 166.77634076 97.45682755 167.875 100.125 C168.06377862 104.46690832 166.5850459 107.54829132 164 111 C158.65912344 114.418161 153.23859343 114.94066985 147 114 C132.43984579 109.60377279 123.05732843 100.46457567 115 87.875 C112.08214818 83.38162195 109.20438166 79.96021645 105.02734375 76.625 C103 75 103 75 101.12890625 73.1875 C92.95099858 65.28059512 81.81311874 57.76296532 71 54 C71.34780518 54.79265259 71.34780518 54.79265259 71.70263672 55.60131836 C72.7684319 58.04316644 73.82174035 60.49022021 74.875 62.9375 C75.42220703 64.18370117 75.42220703 64.18370117 75.98046875 65.45507812 C79.13063631 72.81501506 81.41491652 79.90912795 81 88 C75.91532124 87.44942969 71.7872046 86.23364456 67.0625 84.3125 C44.06043072 75.72146045 18.29479411 73.87234315 -6 72 C1.21115247 73.78378192 8.41729471 75.3004843 15.73828125 76.54296875 C71.49450702 86.05498123 71.49450702 86.05498123 87 102 C88.64374569 103.40232054 90.31024405 104.77847573 92 106.125 C92.825 106.78757812 93.65 107.45015625 94.5 108.1328125 C98.83246679 111.64920521 98.83246679 111.64920521 104 113 C103.49210938 112.68289063 102.98421875 112.36578125 102.4609375 112.0390625 C95.75467892 107.49287223 91.56855153 101.7056546 89 94 C88.63426511 90.47663323 88.28488716 86.95572153 88.01367188 83.42382812 C87.5010012 78.2562892 86.17088129 75.25142501 83 71 C83 70.34 83 69.68 83 69 C91.91051481 70.63495685 100.01151476 78.80989278 105 86 C105 86.99 105 87.98 105 89 C102.69 89.99 100.38 90.98 98 92 C97.56204528 96.37954716 97.67105619 98.4816643 100.0625 102.25 C102.94774539 105.3508097 106.04582792 106.60440986 110 108 C109.360625 107.484375 108.72125 106.96875 108.0625 106.4375 C105.44208319 103.34064377 105.30610183 100.97932377 105 97 C108 95 108 95 111.26171875 94.95703125 C116.25955055 96.35141065 118.42185627 98.90706648 121.8125 102.6875 C127.07127325 108.25252111 132.05739081 112.61191161 139 116 C139.95003906 116.52851563 140.90007812 117.05703125 141.87890625 117.6015625 C145.24106756 119.10801275 147.78022084 119.42472729 151.4375 119.6875 C169.49778764 122.02337316 185.35054075 136.11227764 198.10546875 148.25 C200.42567355 150.45435112 202.76876322 152.59352347 205.1875 154.6875 C212.31183499 160.8689083 219.23129787 167.16973987 225.85546875 173.88671875 C227.82298359 175.82556307 229.83948522 177.64220479 231.9375 179.4375 C245.31921536 190.95764609 245.31921536 190.95764609 247 196 C238.79274611 194.22176166 238.79274611 194.22176166 235.01171875 193.1640625 C228.84959779 191.45714717 224.28375063 190.67074506 218 192 C218.58007812 192.72703125 218.58007812 192.72703125 219.171875 193.46875 C227.46495287 204.14300864 229.61592644 213.35392287 229.94238281 226.70117188 C229.99333239 228.73397365 230.08356232 230.76570813 230.1796875 232.796875 C230.0504458 236.46733934 229.73850157 238.75295738 228 242 C223.70370719 245.12752802 219.17448143 247.06410096 214.26855469 249.05078125 C210.59677167 250.58714504 207.08204841 252.39553494 203.5625 254.25 C202.86946777 254.6119043 202.17643555 254.97380859 201.46240234 255.34667969 C193.68576396 259.52265743 186.59658451 264.67751626 179.51782227 269.92773438 C175.88762137 272.49229 172.30649713 272.54176602 168 272 C165.45387322 270.82285234 163.50518986 269.76321431 161.25 268.1875 C160.65147217 267.78297607 160.05294434 267.37845215 159.4362793 266.96166992 C145.66799771 257.40233545 134.17304668 244.65511818 126 230 C126 229.34 126 228.68 126 228 C108.04047419 229.66291906 93.40361454 232.22531621 80.40234375 246.1484375 C77.15475883 250.43633513 75.27809074 254.93418309 74.5625 260.25 C75.12141679 263.76319128 75.56258734 265.34752152 78 268 C85.58312029 271.46209602 93.25645895 271.32970586 101.42578125 271.1171875 C104.02277991 271.08411736 106.61978543 271.05158187 109.21679688 271.01953125 C113.26516948 270.95464511 117.31315347 270.87561741 121.36108398 270.78759766 C125.29907398 270.70376674 129.23714579 270.66128237 133.17578125 270.6171875 C134.96390984 270.56436111 134.96390984 270.56436111 136.78816223 270.51046753 C147.98301406 270.41235624 157.62437815 273.60257069 166.51171875 280.47265625 C169.14344199 283.17345359 169.97168027 285.30616673 170.125 289.0625 C169.0771116 294.90073534 164.53379933 299.44756101 161 304 C154.98260761 311.97485738 150.06858766 319.84841727 149 330 C148.01 330 147.02 330 146 330 C145.79246094 328.97261719 145.58492187 327.94523437 145.37109375 326.88671875 C143.00342042 315.92860692 140.07984775 305.91333832 130.1875 299.4375 C120.92453405 294.06466089 110.0859211 294.77123915 99.74514771 294.90707397 C95.61669092 294.95871011 91.48810322 294.9702692 87.359375 294.984375 C86.54747208 294.98769333 85.73556915 294.99101166 84.89906311 294.99443054 C44.16769814 295.12204529 44.16769814 295.12204529 31 286 C27.69516889 282.21153507 26.09694507 279.04114353 26 274 C27.27209852 267.71249668 29.5941957 262.40231027 33 257 C30.31678692 257.51600252 28.35144557 258.32427722 25.875 259.5625 C23 261 23 261 21 261 C22.11039959 251.42807444 28.02585047 244.21649215 35.30078125 238.2421875 C37 237 37 237 39 236 C38.06800781 235.97421875 37.13601563 235.9484375 36.17578125 235.921875 C20.98852335 235.24620326 3.83707729 231.19935007 -7.65234375 220.5390625 C-15.04926159 211.58562377 -18.01459108 203.60323892 -18.24609375 192.01953125 C-18.27905535 190.67642634 -18.31226657 189.33332754 -18.34570312 187.99023438 C-18.39278811 185.90849269 -18.43722869 183.82677146 -18.47680664 181.74487305 C-18.77171515 166.90585386 -19.18437324 156.68355745 -30.0859375 145.9453125 C-40.53042841 136.78410375 -54.37763429 132.05546946 -67.21875 127.2265625 C-70 126 -70 126 -71 124 C-62.41758135 123.71295289 -54.42944814 124.47772277 -46 126.0625 C-44.18085083 126.39967041 -44.18085083 126.39967041 -42.32495117 126.74365234 C-11.80873455 132.56283147 18.58810281 141.29055592 47 154 C45.3997938 150.20062773 42.97157938 147.57197711 40.1875 144.5625 C39.33542969 143.63566406 38.48335937 142.70882812 37.60546875 141.75390625 C35.11377815 139.12026026 32.57096335 136.5561877 30 134 C28.64109489 132.61930815 27.28311385 131.23770653 25.92578125 129.85546875 C18.27698595 122.09741677 10.77213968 114.49500608 2 108 C0.76098095 107.03647157 -0.47579125 106.07005049 -1.7109375 105.1015625 C-20.86945941 90.14294322 -40.90894789 76.8678115 -62.64501953 65.95410156 C-66.01433151 64.22869102 -67.86017946 63.20973081 -70 60 C-61.42 60 -52.84 60 -44 60 C-46.15493733 40.60556406 -51.87778721 24.02148311 -65.05859375 9.328125 C-67 7 -67 7 -67 5 C-50.99320579 4.01327981 -37.18679735 8.76230337 -23 15.625 C-22.35212524 15.93302551 -21.70425049 16.24105103 -21.03674316 16.55841064 C-6.8485655 23.30610586 7.76020195 30.76020195 19 42 C16.71346763 28.28080576 8.54548603 15.88523941 1.26171875 4.21484375 C0 2 0 2 0 0 Z M139 162 C143.28697732 167.25154721 147.843736 171.61764181 153 176 C159.89316071 181.91586949 166.36442798 188.2313292 172.8125 194.625 C173.6372583 195.43678711 174.4620166 196.24857422 175.31176758 197.08496094 C178.81162484 200.57946728 182.08997912 203.93313434 184.8359375 208.05859375 C185.90714844 209.51458984 185.90714844 209.51458984 187 211 C190.71158857 211.58560449 190.71158857 211.58560449 194 211 C188.20440529 204.07355754 182.06502288 197.83454283 175.22265625 191.94140625 C172.67023117 189.71195939 170.18112486 187.41998618 167.6875 185.125 C163.16035535 180.99179197 158.49375254 177.09195607 153.71875 173.25 C150.01710295 170.18656796 146.5033434 166.93512942 142.99609375 163.65234375 C141.17510415 161.78744658 141.17510415 161.78744658 139 162 Z M136 179 C140.08950568 184.14109285 144.66514598 188.54999808 149.5378418 192.93334961 C152.88861659 195.97303826 156.0974419 199.09861542 159.2265625 202.3671875 C159.93699707 203.10396729 160.64743164 203.84074707 161.37939453 204.59985352 C162.77591923 206.05699183 164.1601339 207.52604459 165.53076172 209.00756836 C166.17029785 209.67151611 166.80983398 210.33546387 167.46875 211.01953125 C168.03013672 211.61870361 168.59152344 212.21787598 169.16992188 212.83520508 C171.02590177 214.28650523 171.02590177 214.28650523 173.72070312 213.6862793 C174.47287109 213.45980713 175.22503906 213.23333496 176 213 C174.86848883 211.86848883 173.73623871 210.73771224 172.6015625 209.609375 C171.48182553 208.4841759 170.37329023 207.34776812 169.2734375 206.203125 C164.7256175 201.52429784 159.90324315 197.39079805 154.81640625 193.30859375 C151.15877395 190.31045133 147.6724353 187.14533591 144.19140625 183.9453125 C140.58406054 180.35352587 140.58406054 180.35352587 136 179 Z M132 196 C134.77343297 199.81347034 137.87237681 202.72985814 141.4453125 205.75 C143.52236121 207.57932731 145.51048842 209.44536701 147.4921875 211.375 C148.4195874 212.26832031 148.4195874 212.26832031 149.36572266 213.1796875 C150.61184301 214.38350629 151.84872794 215.5969665 153.07568359 216.8203125 C153.65398926 217.37460937 154.23229492 217.92890625 154.828125 218.5 C155.6001123 219.25796875 155.6001123 219.25796875 156.38769531 220.03125 C158.00813286 221.23942047 158.00813286 221.23942047 160.19824219 220.65625 C160.79282227 220.4396875 161.38740234 220.223125 162 220 C158.73535268 211.91092943 148.42108618 206.48932609 141.5 201.5 C140.9009082 201.06671387 140.30181641 200.63342773 139.68457031 200.18701172 C137.13260293 198.37507131 134.98816493 196.99605498 132 196 Z " fill="#010101" transform="translate(757,149)"/>
<path d="M0 0 C0.64130859 0.42619629 1.28261719 0.85239258 1.94335938 1.29150391 C11.77881643 7.86160776 20.94979837 15.10665647 30.015625 22.69140625 C34.98441413 26.84193196 40.10528037 30.76940039 45.26757812 34.67675781 C47.18541782 36.1416241 49.08526197 37.62813081 50.984375 39.1171875 C80.00236786 61.77889009 106.73036462 72.94546134 143.59985352 75.52636719 C152.88112061 76.18758508 161.29110428 77.49275204 170 81 C170.88349121 81.35562012 171.76698242 81.71124023 172.67724609 82.07763672 C183.4927358 86.66347711 191.41239962 96.01417975 198.69042969 104.92260742 C204.31415921 111.7411257 210.67428663 117.84050976 217 124 C216.34 124.33 215.68 124.66 215 125 C213.13085937 124.30664062 213.13085937 124.30664062 210.84375 123.15625 C209.99578857 122.73762695 209.14782715 122.31900391 208.27416992 121.88769531 C207.35869385 121.42975586 206.44321777 120.97181641 205.5 120.5 C184.68553978 110.39249387 159.58638497 99.43785387 136 100 C136.68707031 101.09699219 137.37414062 102.19398438 138.08203125 103.32421875 C138.99221165 104.77863072 139.90236655 106.23305865 140.8125 107.6875 C141.26431641 108.40873047 141.71613281 109.12996094 142.18164062 109.87304688 C143.06131638 111.27924389 143.93913891 112.68660224 144.81494141 114.09521484 C145.81241867 115.69849412 146.81745126 117.29706934 147.82421875 118.89453125 C149 121 149 121 149 123 C144.81207575 122.3514968 141.35171909 120.93225807 137.5 119.1875 C125.83743093 114.06292132 113.68248693 110.17908422 100.83203125 109.94140625 C93.56802313 109.78489403 90.66723727 108.38120948 85.59765625 103.265625 C70.49941684 90.09723574 49.20767519 88.1715898 30.05078125 89.21484375 C14.45823694 90.38759476 -3.7942732 94.54489057 -16.140625 104.7734375 C-18 106 -18 106 -20.0234375 105.875 C-22.30646286 104.86433265 -23.78612394 103.69020097 -25.625 102 C-26.32238281 101.36964844 -27.01976562 100.73929687 -27.73828125 100.08984375 C-29.27852798 98.66664513 -30.81754263 97.24211222 -32.35546875 95.81640625 C-38.27610248 90.38523667 -44.42391296 85.60857852 -51 81 C-51.99773437 80.2678125 -52.99546875 79.535625 -54.0234375 78.78125 C-85.86155363 55.82636133 -122.72137613 51.21858514 -161 52 C-161.91007812 52.01836914 -162.82015625 52.03673828 -163.7578125 52.05566406 C-193.17864085 52.98984631 -222.96829291 63.40900927 -251.06982422 71.31469727 C-296.7125951 84.12913774 -296.7125951 84.12913774 -318.4375 84.203125 C-319.74920166 84.20882507 -321.06090332 84.21452515 -322.41235352 84.22039795 C-325.19287497 84.23087527 -327.97336788 84.2367359 -330.75390625 84.24023438 C-333.55612515 84.24457666 -336.35802877 84.2583061 -339.16015625 84.28125 C-361.67084237 84.46152581 -383.39834637 83.53411536 -405.125 77.125 C-406.29546875 76.79886719 -407.4659375 76.47273438 -408.671875 76.13671875 C-417.26003498 73.68975964 -425.99089387 71.00455307 -434 67 C-434 66.34 -434 65.68 -434 65 C-432.80890625 65.0721875 -431.6178125 65.144375 -430.390625 65.21875 C-386.05564867 67.71862526 -338.32711071 67.48273122 -297 49 C-296.17564453 48.63503418 -295.35128906 48.27006836 -294.50195312 47.89404297 C-283.73649947 43.07679394 -273.50595379 38.04582082 -264 31 C-265.85238281 30.76216797 -265.85238281 30.76216797 -267.7421875 30.51953125 C-285.32922153 28.14706625 -302.16782519 24.28112437 -318 16 C-318.33 15.34 -318.66 14.68 -319 14 C-317.90051025 14.01571045 -317.90051025 14.01571045 -316.77880859 14.03173828 C-300.72893801 14.22951394 -284.93222966 14.04365522 -269 12 C-268.1538916 11.89768066 -267.3077832 11.79536133 -266.43603516 11.68994141 C-239.61423832 8.28440296 -213.31074065 -0.43367036 -188.46313477 -10.84716797 C-170.77767656 -18.15920393 -151.49584141 -22.91025642 -132.3125 -23.625 C-131.39734619 -23.66077148 -130.48219238 -23.69654297 -129.53930664 -23.73339844 C-86.26286214 -25.22019653 -37.32934197 -25.22856246 0 0 Z " fill="#000000" transform="translate(595,29)"/>
<path d="M0 0 C1.14825256 0.00068481 2.29650513 0.00136963 3.47955322 0.0020752 C38.08530173 0.07010058 38.08530173 0.07010058 44.625 2.25 C44.625 3.24 44.625 4.23 44.625 5.25 C43.820625 5.32476562 43.01625 5.39953125 42.1875 5.4765625 C-2.77022703 10.50472934 -60.85577928 32.73077928 -93.375 65.25 C-92.82674561 64.99831055 -92.27849121 64.74662109 -91.71362305 64.48730469 C-89.1652398 63.32046548 -86.61390147 62.1602239 -84.0625 61 C-83.20076172 60.60425781 -82.33902344 60.20851563 -81.45117188 59.80078125 C-75.18895841 56.96066957 -68.85709996 54.53631228 -62.375 52.25 C-61.11232606 51.79468752 -59.85006305 51.33823443 -58.58813477 50.88085938 C-41.42092335 44.6646037 -24.21236113 38.69732794 -6.6875 33.5625 C-5.98156708 33.35453796 -5.27563416 33.14657593 -4.54830933 32.93231201 C3.11835364 30.6838438 10.75928116 28.67311788 18.625 27.25 C19.95128938 26.98163524 21.27686414 26.70970497 22.6015625 26.43359375 C23.80554688 26.18738281 25.00953125 25.94117188 26.25 25.6875 C27.45914062 25.43871094 28.66828125 25.18992187 29.9140625 24.93359375 C36.75744395 23.67297085 43.39666893 23.07934124 50.33984375 23.01171875 C51.15385147 23.003647 51.96785919 22.99557526 52.80653381 22.98725891 C54.52342663 22.97350785 56.24034574 22.9627461 57.95727539 22.95483398 C59.67806263 22.94338465 61.39881637 22.92304633 63.11938477 22.89331055 C84.48604929 22.52552201 103.03435438 27.40856137 121.625 38.25 C121.625 39.24 121.625 40.23 121.625 41.25 C120.97241211 41.2593457 120.31982422 41.26869141 119.64746094 41.27832031 C90.34169046 41.80182094 65.61113092 48.3251831 39.37304688 61.38330078 C37.81410609 62.1562393 36.24369226 62.90593847 34.671875 63.65234375 C30.78087151 65.52026414 27.12708904 67.51209163 23.5625 69.94921875 C18.16816787 73.58385503 12.65184858 77.00901648 7.125 80.4375 C0.69146717 84.43733215 -5.72728618 88.44892827 -12.05419922 92.61572266 C-38.53751946 110.04590693 -66.94289414 124.53087859 -96.375 136.25 C-97.20338379 136.58580078 -98.03176758 136.92160156 -98.88525391 137.26757812 C-155.46341586 160.06542425 -222.94266261 167.08363784 -282.375 151.25 C-282.375 149.93 -282.375 148.61 -282.375 147.25 C-281.73691406 146.95867187 -281.09882813 146.66734375 -280.44140625 146.3671875 C-277.93589709 145.1242048 -275.63541957 143.90053278 -273.375 142.25 C-272.16217711 139.09050318 -272.16217711 139.09050318 -272.375 136.25 C-299.29476074 111.99641365 -353.00512798 110.56180472 -387.375 105.25 C-387.375 104.26 -387.375 103.27 -387.375 102.25 C-382.97734559 101.2211189 -378.59154938 100.93240164 -374.09765625 100.671875 C-372.39261858 100.56526838 -370.68762366 100.45797649 -368.98266602 100.35009766 C-368.0808963 100.29364075 -367.17912659 100.23718384 -366.25003052 100.17901611 C-304.45388735 96.31455196 -304.45388735 96.31455196 -244.375 82.25 C-243.21991943 81.87584961 -243.21991943 81.87584961 -242.04150391 81.49414062 C-217.13218129 73.27728542 -194.62739015 60.52889499 -172.97265625 45.94873047 C-138.24844954 22.71036438 -98.67628213 9.00739073 -57.375 3.25 C-56.3634082 3.10046875 -55.35181641 2.9509375 -54.30957031 2.796875 C-36.22035961 0.21667403 -18.24159565 -0.0156454 0 0 Z " fill="#000000" transform="translate(548.375,252.75)"/>
<path d="M0 0 C4.28221788 1.93911753 5.70977751 3.59591627 8.3125 7.5 C9.42034871 10.6118553 9.44806408 13.70110379 9.55151367 16.98193359 C10.13624252 34.03425849 13.21719891 50.55413814 25.11328125 63.51953125 C28.91525742 66.94333572 33.15059992 69.7186326 37.421875 72.51953125 C39.71250589 74.08892295 41.41731611 75.52310296 43.3125 77.5 C42.75715576 77.5093457 42.20181152 77.51869141 41.62963867 77.52832031 C25.27349024 77.86785977 9.4206335 79.6891997 -6.6875 82.5 C-8.46398926 82.80333252 -8.46398926 82.80333252 -10.27636719 83.11279297 C-28.58808211 86.31450425 -45.52972718 91.36614831 -62.6875 98.5 C-63.65236328 98.89703125 -64.61722656 99.2940625 -65.61132812 99.703125 C-79.61669127 105.54274827 -92.56046833 112.84159844 -105.55615234 120.63818359 C-110.91596091 123.82498385 -116.337772 126.90339568 -121.75 130 C-130.21847727 134.86406266 -138.60848095 139.83842302 -146.9375 144.9375 C-150.52034485 147.12580108 -154.1038169 149.31307207 -157.6875 151.5 C-158.31914063 151.88704102 -158.95078125 152.27408203 -159.6015625 152.67285156 C-193.02626246 173.01916601 -225.01724696 182.97600359 -263.6875 185.5 C-277.17973197 186.4011318 -290.59038889 187.61134277 -304 189.375 C-305.18577637 189.52437012 -306.37155273 189.67374023 -307.59326172 189.82763672 C-314.52144962 190.78355249 -320.79680387 192.33349143 -327.34838867 194.79736328 C-329.6875 195.5 -329.6875 195.5 -331.6875 194.5 C-330.53311995 193.34561995 -329.37766118 192.19230747 -328.21826172 191.04296875 C-327.20339568 190.02000968 -326.20458353 188.98085272 -325.22314453 187.92578125 C-319.80545271 182.21699453 -313.54523003 178.12093542 -306.98242188 173.83789062 C-300.79183625 169.66240857 -296.06130188 165.24760375 -292.6875 158.5 C-297.06744535 158.94315754 -301.39147289 159.39836529 -305.7109375 160.25390625 C-341.25562424 167.06491374 -379.99923315 162.08700674 -414.6875 153.5 C-415.61288574 153.27473633 -416.53827148 153.04947266 -417.49169922 152.81738281 C-433.42402972 148.85870905 -448.52338566 142.699364 -463.6875 136.5 C-463.6875 136.17 -463.6875 135.84 -463.6875 135.5 C-458.87174069 135.97252753 -454.05774922 136.45128949 -449.25 137 C-447.72931084 137.16797702 -446.2084585 137.33447944 -444.6875 137.5 C-443.9661084 137.57959961 -443.2447168 137.65919922 -442.50146484 137.74121094 C-405.1133372 141.50496424 -367.5955989 139.16048461 -330.6875 132.5 C-329.54780762 132.30067871 -328.40811523 132.10135742 -327.23388672 131.89599609 C-286.16178223 124.62228597 -243.94328754 112.44200048 -206.6875 93.5 C-205.80578125 93.05301758 -204.9240625 92.60603516 -204.015625 92.14550781 C-192.65245907 86.30843774 -182.18086194 79.64311148 -171.88427734 72.10205078 C-107.14093461 24.88646787 -107.14093461 24.88646787 -80.6875 26.5 C-81.55976658 30.9444344 -84.05417494 33.57402407 -87 36.875 C-88.09536743 38.12472367 -89.19041017 39.374732 -90.28515625 40.625 C-91.13037842 41.5840625 -91.13037842 41.5840625 -91.99267578 42.5625 C-94.1627196 45.04326458 -96.28829031 47.56001749 -98.41503906 50.07788086 C-107.92025197 61.29787319 -118.10663747 71.67946384 -130.6875 79.5 C-109.69555073 76.19068094 -91.99775282 66.25219774 -74.26269531 55.11279297 C-71.44051099 53.34531576 -68.60759834 51.59586006 -65.7734375 49.84765625 C-50.1301675 40.17455295 -34.66142194 30.51579275 -20.6875 18.5 C-19.89859375 17.84515625 -19.1096875 17.1903125 -18.296875 16.515625 C-14.10310943 12.94949781 -10.80114714 9.40074116 -7.5625 4.9375 C-4.17443896 0.56602562 -4.17443896 0.56602562 0 0 Z " fill="#000000" transform="translate(698.6875,301.5)"/>
<path d="M0 0 C0.92091738 2.57856865 1.18506902 3.5943287 0.0234375 6.140625 C-0.31429688 6.75421875 -0.65203125 7.3678125 -1 8 C-0.17757813 7.65066406 0.64484375 7.30132812 1.4921875 6.94140625 C9.72376664 3.58603969 18.09474941 0.32842482 27 3 C26.29875 3.680625 25.5975 4.36125 24.875 5.0625 C23.91306958 6.03813313 22.95506612 7.01764627 22 8 C21.20916016 8.79664063 21.20916016 8.79664063 20.40234375 9.609375 C15.34182898 15.03046699 14.3259772 19.63156895 13.625 26.875 C13.86393475 33.63154385 16.38521654 39.90013288 21.25 44.625 C25.05516795 47.60020526 29.1763236 49.93779112 33.4375 52.1875 C34.0262793 52.5086377 34.61505859 52.82977539 35.22167969 53.16064453 C49.87888065 60.45156584 66.99945087 61.00821131 83 62.1875 C85.09123806 62.35234985 87.18238494 62.51836054 89.2734375 62.68554688 C99.72377241 63.50976302 110.17286356 64.22656581 120.64282227 64.74731445 C130.42289174 65.48343342 136.56742173 69.6115316 143 77 C148.91252119 85.74445307 151.18578359 98.57491203 149.5625 109 C147.62170335 115.32868471 143.4974833 119.53767832 137.87109375 122.83203125 C134.94440336 124.30747021 132.00674416 125.69658381 129 127 C129.79036933 122.97694888 130.67778601 118.98333812 131.59765625 114.98828125 C132.0661125 113.01138565 132.0661125 113.01138565 132 111 C131.42145264 111.25168945 130.84290527 111.50337891 130.24682617 111.76269531 C124.72249665 114.16127993 119.18521293 116.52604441 113.63330078 118.86010742 C111.77521134 119.66442965 109.93248715 120.50470785 108.10205078 121.37011719 C95.3552549 127.35505769 78.49481235 124.75660953 65.3125 121.36328125 C61.40802115 119.75636719 59.09254987 117.84269447 56 115 C58.71140428 113.19239715 60.20881416 112.60469701 63.25 111.8125 C68.4240211 110.10473486 72.05363185 107.64619593 75 103 C77.13137765 96.35317795 75.96951845 90.18344172 73 84 C70.48267909 80.05619725 68.49804162 78.28515475 64 77 C59.27839586 75.99572229 54.65841328 75.83907398 49.85253906 75.70996094 C24.97862893 75.0288057 6.64885419 71.60227844 -11.5625 53.6875 C-12.10003906 53.15954834 -12.63757813 52.63159668 -13.19140625 52.08764648 C-17 48.24495888 -17 48.24495888 -17 46 C-17.54527344 45.73316406 -18.09054687 45.46632813 -18.65234375 45.19140625 C-22.30228473 43.33910675 -25.8628591 41.32576747 -29.44140625 39.33984375 C-36.66461383 35.55730909 -45.66308806 35.95130039 -53.45703125 37.8359375 C-64.95028981 41.97740189 -74.28294631 48.92476411 -83.0390625 57.3125 C-85 59 -85 59 -87 59 C-87.27094482 59.57274658 -87.54188965 60.14549316 -87.82104492 60.7355957 C-89.02240788 63.04303853 -90.37215838 65.09984907 -91.86328125 67.23046875 C-92.42080078 68.03419922 -92.97832031 68.83792969 -93.55273438 69.66601562 C-94.71290712 71.32837192 -95.87433703 72.98985164 -97.03710938 74.65039062 C-99.77905594 78.60748228 -102.35759068 82.54165784 -104.63671875 86.78515625 C-106.56798076 90.3558956 -108.70489054 93.27773571 -111.5 96.25 C-112.28246094 97.08660156 -113.06492187 97.92320312 -113.87109375 98.78515625 C-114.57363281 99.51605469 -115.27617188 100.24695313 -116 101 C-116.845625 101.886875 -117.69125 102.77375 -118.5625 103.6875 C-119.366875 104.450625 -120.17125 105.21375 -121 106 C-121.75023437 106.77730469 -121.75023437 106.77730469 -122.515625 107.5703125 C-141.06478972 125.55493742 -172.43559863 131.76155537 -197.21582031 131.46655273 C-199.89450012 131.43728695 -202.57122416 131.44606815 -205.25 131.45898438 C-213.71541462 131.44726389 -221.40530343 131.08725666 -229.58935547 128.67895508 C-237.92797582 126.33039288 -248.20859649 127.18507037 -256 131 C-258.95895301 133.00828537 -261.77464927 135.10631246 -264.5546875 137.35546875 C-267 139 -267 139 -271 139 C-270.7440107 131.96029429 -268.56401395 127.37180403 -264 122 C-260.35558566 118.74449046 -256.40570382 116.38027084 -252.0625 114.1875 C-251.37647705 113.83913086 -250.6904541 113.49076172 -249.98364258 113.13183594 C-244.21312457 110.32975959 -238.33933289 108.51911588 -232.1875 106.75 C-216.83490588 102.21512492 -204.61222046 93.9334818 -193.2109375 82.8515625 C-187.20989616 77.28000362 -180.03483063 73.03595712 -173.23779297 68.51513672 C-170.70928854 66.80316874 -168.25252474 65.01167747 -165.80029297 63.19311523 C-156.82436904 56.55288813 -147.18816225 51.03128759 -137.52636719 45.45849609 C-135.35829345 44.20684626 -133.19705536 42.94469009 -131.0390625 41.67578125 C-122.54116179 36.726775 -113.8677902 32.24062756 -105 28 C-103.7301123 27.39188477 -103.7301123 27.39188477 -102.43457031 26.77148438 C-99.67129901 25.4581084 -96.89978834 24.16384938 -94.125 22.875 C-93.28904297 22.47941895 -92.45308594 22.08383789 -91.59179688 21.67626953 C-77.48769049 15.21322002 -62.50418854 11.1100975 -47.48608398 7.38476562 C-44.93192442 6.74861131 -42.38307617 6.09362934 -39.83398438 5.4375 C-26.63630587 2.09948116 -13.66650149 -0.17084313 0 0 Z " fill="#000000" transform="translate(744,388)"/>
<path d="M0 0 C2.74101696 2.40396605 5.14227889 4.85048606 7 8 C7 9.32 7 10.64 7 12 C4.28698106 11.39119619 2.25056476 10.64649281 -0.3125 9.4375 C-6.43971545 7.08622451 -13.5571841 7.24289491 -20 8 C-22.40776582 9.37915595 -22.40776582 9.37915595 -24 11 C-23.82420947 19.26215497 -19.06274825 23.86068304 -13.5 29.5625 C-6.79050248 35.97379763 0.4374499 41.38232307 8.12036133 46.58496094 C8.86825928 47.10219727 9.61615723 47.61943359 10.38671875 48.15234375 C11.05920654 48.60601318 11.73169434 49.05968262 12.42456055 49.52709961 C14.29684167 51.27752144 14.62404616 52.50156412 15 55 C7.1694243 60.00286781 -1.92730852 60.384688 -11 59 C-21.35908263 55.94707137 -30.50004766 48.92433463 -39.01464844 42.49804688 C-42.1301123 40.14727385 -45.26585297 37.82406463 -48.40307617 35.50244141 C-50.05270169 34.28043772 -51.69889365 33.05378075 -53.34106445 31.82177734 C-63.12271414 24.54159316 -70.18137294 21.98114948 -82.38085938 21.39453125 C-87.79518053 21.10240974 -87.79518053 21.10240974 -90 20 C-90.50939993 14.65130078 -89.36708449 12.14410399 -86 8 C-67.3727607 -11.41778527 -22.5590677 -13.78379733 0 0 Z " fill="#000000" transform="translate(671,140)"/>
<path d="M0 0 C11.60708669 0.76112044 21.66690677 4.27196892 29.8125 12.8125 C32.84897663 16.45086175 34.36957077 19.10318736 34 24 C29.4965367 30.36696536 20.49927328 35.29561971 13 37 C9.625 37.125 9.625 37.125 7 37 C6.15756223 33.63024893 5.68781337 31.26135707 7 28 C8.99609375 26.515625 8.99609375 26.515625 11.4375 25.25 C12.24058594 24.82203125 13.04367187 24.3940625 13.87109375 23.953125 C16 23 16 23 18 23 C16.58480285 20.9656541 15.45017877 20.09589607 13.01953125 19.578125 C11.01823046 19.33726048 9.0090056 19.16467259 7 19 C6.74605469 18.18015625 6.49210938 17.3603125 6.23046875 16.515625 C5.88628906 15.43796875 5.54210937 14.3603125 5.1875 13.25 C4.85105469 12.18265625 4.51460937 11.1153125 4.16796875 10.015625 C3.07384301 7.19065821 1.80736464 5.38219981 0 3 C0 2.01 0 1.02 0 0 Z " fill="#000000" transform="translate(987,347)"/>
</svg>
